<svg width="280" height="115" viewBox="0 0 280 115" fill="none" xmlns="http://www.w3.org/2000/svg">
<g clip-path="url(#clip0)">
<g filter="url(#filter0_ddd)">
<g clip-path="url(#clip1)">
<rect x="97.7988" y="28.3848" width="77" height="163" rx="12" transform="rotate(-7 97.7988 28.3848)" fill="white"/>
<rect width="77" height="167" transform="translate(97.7988 28.3848) rotate(-7)" fill="white"/>
<rect x="97.7988" y="28.3848" width="77" height="167" transform="rotate(-7 97.7988 28.3848)" fill="url(#paint0_radial)"/>
<rect x="97.7988" y="28.3848" width="77" height="167" transform="rotate(-7 97.7988 28.3848)" fill="url(#paint1_radial)" fill-opacity="0.9"/>
<rect x="97.7988" y="28.3848" width="77" height="167" transform="rotate(-7 97.7988 28.3848)" fill="url(#paint2_radial)" fill-opacity="0.9"/>
<rect x="97.7988" y="28.3848" width="77" height="167" transform="rotate(-7 97.7988 28.3848)" fill="url(#paint3_radial)" fill-opacity="0.9"/>
<path d="M155.706 36.3885L119.974 40.7758C117.518 41.0774 115.761 43.388 116.071 45.9103L119.45 73.4269C119.759 75.9492 122.023 77.7662 124.479 77.4646L160.211 73.0773C162.667 72.7756 164.424 70.4651 164.114 67.9428L160.735 40.4262C160.426 37.9038 158.162 36.0869 155.706 36.3885ZM156.009 46.2436L142.555 57.4155C141.219 58.5339 139.388 58.7587 137.821 57.9968L122.064 50.4116C121.461 50.1132 121.05 49.5352 120.968 48.8703C120.78 47.3339 122.297 46.2165 123.669 46.8628L139.811 54.6335L153.594 43.1884C154.768 42.2296 156.511 42.9466 156.7 44.483C156.781 45.1479 156.522 45.8082 156.009 46.2436Z" fill="white"/>
<circle cx="160.172" cy="35.8389" r="7" transform="rotate(-7 160.172 35.8389)" fill="#FF0000"/>
</g>
<rect x="96.1272" y="27.0788" width="80" height="166" rx="13.5" transform="rotate(-7 96.1272 27.0788)" stroke="black" stroke-width="3"/>
</g>
<path d="M158.182 10.9863L163.643 10.3157C174.058 9.03691 183.538 16.4434 184.817 26.8586L185.488 32.3201" stroke="#15E1AE" stroke-width="3" stroke-linecap="round"/>
<path d="M85 53.0527L87.9861 77.3726" stroke="#15E1AE" stroke-width="3" stroke-linecap="round"/>
<path d="M164.559 2.92188V2.92188C177.942 1.27862 190.123 10.7958 191.767 24.179V24.179" stroke="#15E1AE" stroke-width="3" stroke-linecap="round"/>
<path d="M91.291 48L95.1577 79.4914" stroke="#15E1AE" stroke-width="3" stroke-linecap="round"/>
</g>
<defs>
<filter id="filter0_ddd" x="82.1699" y="6.37305" width="127.548" height="203.426" filterUnits="userSpaceOnUse" color-interpolation-filters="sRGB">
<feFlood flood-opacity="0" result="BackgroundImageFix"/>
<feColorMatrix in="SourceAlpha" type="matrix" values="0 0 0 0 0 0 0 0 0 0 0 0 0 0 0 0 0 0 127 0" result="hardAlpha"/>
<feOffset dy="5"/>
<feGaussianBlur stdDeviation="2.5"/>
<feColorMatrix type="matrix" values="0 0 0 0 0 0 0 0 0 0 0 0 0 0 0 0 0 0 0.2 0"/>
<feBlend mode="normal" in2="BackgroundImageFix" result="effect1_dropShadow"/>
<feColorMatrix in="SourceAlpha" type="matrix" values="0 0 0 0 0 0 0 0 0 0 0 0 0 0 0 0 0 0 127 0" result="hardAlpha"/>
<feOffset dy="3"/>
<feGaussianBlur stdDeviation="7"/>
<feColorMatrix type="matrix" values="0 0 0 0 0 0 0 0 0 0 0 0 0 0 0 0 0 0 0.12 0"/>
<feBlend mode="normal" in2="effect1_dropShadow" result="effect2_dropShadow"/>
<feColorMatrix in="SourceAlpha" type="matrix" values="0 0 0 0 0 0 0 0 0 0 0 0 0 0 0 0 0 0 127 0" result="hardAlpha"/>
<feOffset dy="8"/>
<feGaussianBlur stdDeviation="5"/>
<feColorMatrix type="matrix" values="0 0 0 0 0 0 0 0 0 0 0 0 0 0 0 0 0 0 0.14 0"/>
<feBlend mode="normal" in2="effect2_dropShadow" result="effect3_dropShadow"/>
<feBlend mode="normal" in="SourceGraphic" in2="effect3_dropShadow" result="shape"/>
</filter>
<radialGradient id="paint0_radial" cx="0" cy="0" r="1" gradientUnits="userSpaceOnUse" gradientTransform="translate(102.718 180.183) rotate(-58.5353) scale(95.8861 84.5522)">
<stop stop-color="#0698EB"/>
<stop offset="1" stop-color="#0698EB" stop-opacity="0"/>
</radialGradient>
<radialGradient id="paint1_radial" cx="0" cy="0" r="1" gradientUnits="userSpaceOnUse" gradientTransform="translate(161.645 55.5758) rotate(125.317) scale(106.925 77.0514)">
<stop stop-color="#5FCE8D"/>
<stop offset="0.245662" stop-color="#5FCE8D"/>
<stop offset="1" stop-color="#5FCE8D" stop-opacity="0"/>
</radialGradient>
<radialGradient id="paint2_radial" cx="0" cy="0" r="1" gradientUnits="userSpaceOnUse" gradientTransform="translate(191.482 190.889) rotate(-125.88) scale(115.87 99.6534)">
<stop stop-color="#EB064B"/>
<stop offset="1" stop-color="#EB064B" stop-opacity="0"/>
</radialGradient>
<radialGradient id="paint3_radial" cx="0" cy="0" r="1" gradientUnits="userSpaceOnUse" gradientTransform="translate(97.7988 28.3848) rotate(84.4765) scale(134.438 62.4575)">
<stop stop-color="#EBC606"/>
<stop offset="1" stop-color="#EBD406" stop-opacity="0"/>
</radialGradient>
<clipPath id="clip0">
<rect width="280" height="115" fill="white"/>
</clipPath>
<clipPath id="clip1">
<rect x="97.7988" y="28.3848" width="77" height="163" rx="12" transform="rotate(-7 97.7988 28.3848)" fill="white"/>
</clipPath>
</defs>
</svg>
