<svg width="400" height="400" viewBox="0 0 400 400" fill="none" xmlns="http://www.w3.org/2000/svg">
<rect width="400" height="400" fill="white"/>
<rect width="400" height="400" fill="white"/>
<rect width="400" height="400" fill="url(#paint0_radial)"/>
<rect width="400" height="400" fill="url(#paint1_radial)" fill-opacity="0.9"/>
<rect width="400" height="400" fill="url(#paint2_radial)" fill-opacity="0.9"/>
<rect width="400" height="400" fill="url(#paint3_radial)" fill-opacity="0.9"/>
<g filter="url(#filter0_d)">
<path d="M210.465 166.728C214.047 164.717 218.464 162.588 223.716 160.34C229.088 158.093 235.177 156.969 241.981 156.969C253.322 156.969 261.559 160.399 266.692 167.261C271.826 174.004 274.392 182.521 274.392 192.813V246.048H241.802V193.523C241.802 190.211 240.966 187.667 239.295 185.893C237.624 184.118 235.535 183.231 233.028 183.231C230.998 183.231 228.671 183.823 226.044 185.006C223.418 186.07 220.851 187.194 218.344 188.377C218.344 189.087 218.344 189.856 218.344 190.684C218.464 191.394 218.523 192.104 218.523 192.813V246.048H185.933V193.523C185.933 190.211 185.098 187.667 183.426 185.893C181.755 184.118 179.666 183.231 177.159 183.231C175.368 183.231 173.1 183.764 170.354 184.828C167.728 185.893 165.162 187.017 162.655 188.2V246.048H130.064V160.163H146.36L153.164 167.616C156.745 165.486 161.282 163.179 166.773 160.695C172.384 158.211 178.83 156.969 186.112 156.969C191.604 156.969 196.379 157.856 200.438 159.63C204.497 161.405 207.839 163.771 210.465 166.728Z" fill="white"/>
<path d="M288.72 203.105C288.72 188.673 293.197 177.375 302.15 169.213C311.223 161.05 322.325 156.969 335.457 156.969C349.305 156.969 359.691 161.405 366.614 170.277C373.538 179.15 377 189.619 377 201.686V212.865H324.176C325.608 216.178 327.757 218.543 330.622 219.963C333.606 221.383 337.128 222.092 341.187 222.092C345.007 222.092 348.887 221.738 352.826 221.028C356.885 220.318 360.586 219.135 363.928 217.479L373.061 239.305C368.047 242.972 361.839 245.338 354.438 246.403C347.036 247.468 341.545 248 337.964 248C323.877 248 312.118 244.451 302.688 237.353C293.376 230.137 288.72 218.721 288.72 203.105ZM345.843 193.346C345.723 191.453 344.828 189.264 343.157 186.78C341.485 184.178 338.62 182.876 334.561 182.876C331.577 182.876 329.13 183.823 327.22 185.715C325.429 187.49 324.116 190.033 323.28 193.346H345.843Z" fill="white"/>
<path d="M115.652 210.203H83.9571V246.048L53.8739 244.628V210.203H23.9697L22 184.828H53.8739V152H83.9571V184.828H113.861L115.652 210.203Z" fill="white"/>
</g>
<defs>
<filter id="filter0_d" x="18" y="152" width="363" height="104" filterUnits="userSpaceOnUse" color-interpolation-filters="sRGB">
<feFlood flood-opacity="0" result="BackgroundImageFix"/>
<feColorMatrix in="SourceAlpha" type="matrix" values="0 0 0 0 0 0 0 0 0 0 0 0 0 0 0 0 0 0 127 0"/>
<feOffset dy="4"/>
<feGaussianBlur stdDeviation="2"/>
<feColorMatrix type="matrix" values="0 0 0 0 0 0 0 0 0 0 0 0 0 0 0 0 0 0 0.25 0"/>
<feBlend mode="normal" in2="BackgroundImageFix" result="effect1_dropShadow"/>
<feBlend mode="normal" in="SourceGraphic" in2="effect1_dropShadow" result="shape"/>
</filter>
<radialGradient id="paint0_radial" cx="0" cy="0" r="1" gradientUnits="userSpaceOnUse" gradientTransform="translate(25.5556 363.59) rotate(-36.9963) scale(325.539 309.878)">
<stop stop-color="#0698EB"/>
<stop offset="1" stop-color="#0698EB" stop-opacity="0"/>
</radialGradient>
<radialGradient id="paint1_radial" cx="0" cy="0" r="1" gradientUnits="userSpaceOnUse" gradientTransform="translate(331.667 65.1282) rotate(146.945) scale(383.122 267.569)">
<stop stop-color="#5FCE8D"/>
<stop offset="0.245662" stop-color="#5FCE8D"/>
<stop offset="1" stop-color="#5FCE8D" stop-opacity="0"/>
</radialGradient>
<radialGradient id="paint2_radial" cx="0" cy="0" r="1" gradientUnits="userSpaceOnUse" gradientTransform="translate(486.667 389.231) rotate(-147.485) scale(418.353 343.426)">
<stop stop-color="#EB064B"/>
<stop offset="1" stop-color="#EB064B" stop-opacity="0"/>
</radialGradient>
<radialGradient id="paint3_radial" cx="0" cy="0" r="1" gradientUnits="userSpaceOnUse" gradientTransform="rotate(78.1549) scale(327.486 319.027)">
<stop stop-color="#EBC606"/>
<stop offset="1" stop-color="#EBD406" stop-opacity="0"/>
</radialGradient>
</defs>
</svg>
