<svg width="34" height="34" viewBox="0 0 34 34" fill="none" xmlns="http://www.w3.org/2000/svg">
<path d="M16.9997 0.333984C7.79967 0.333984 0.333008 7.80065 0.333008 17.0007C0.333008 26.2007 7.79967 33.6673 16.9997 33.6673C26.1997 33.6673 33.6663 26.2007 33.6663 17.0007C33.6663 7.80065 26.1997 0.333984 16.9997 0.333984ZM16.9997 5.33398C19.7663 5.33398 21.9997 7.56732 21.9997 10.334C21.9997 13.1007 19.7663 15.334 16.9997 15.334C14.233 15.334 11.9997 13.1007 11.9997 10.334C11.9997 7.56732 14.233 5.33398 16.9997 5.33398ZM16.9997 29.0007C12.833 29.0007 9.14967 26.8673 6.99967 23.634C7.04967 20.3173 13.6663 18.5007 16.9997 18.5007C20.3163 18.5007 26.9497 20.3173 26.9997 23.634C24.8497 26.8673 21.1663 29.0007 16.9997 29.0007Z" fill="#0E9976"/>
</svg>
